<mxfile host="app.diagrams.net" agent="Mozilla/5.0 (X11; Ubuntu; Linux x86_64; rv:138.0) Gecko/20100101 Firefox/138.0" scale="1" border="0" version="27.0.9" pages="2">
  <diagram name="Page-1" id="oUAoi1-TfJVtmyUlhwCi">
    <mxGraphModel dx="1383" dy="1869" grid="1" gridSize="10" guides="1" tooltips="1" connect="1" arrows="1" fold="1" page="1" pageScale="1" pageWidth="850" pageHeight="1100" math="0" shadow="0">
      <root>
        <mxCell id="0" />
        <mxCell id="1" parent="0" />
        <mxCell id="ZugXrchefKqxSvf9OSXH-40" value="" style="rounded=0;whiteSpace=wrap;html=1;strokeWidth=2;" vertex="1" parent="1">
          <mxGeometry x="20" width="960" height="360" as="geometry" />
        </mxCell>
        <mxCell id="ZugXrchefKqxSvf9OSXH-1" value="root" style="rounded=0;whiteSpace=wrap;html=1;" vertex="1" parent="1">
          <mxGeometry x="520" y="20" width="80" height="40" as="geometry" />
        </mxCell>
        <mxCell id="ZugXrchefKqxSvf9OSXH-2" value="processID" style="rounded=0;whiteSpace=wrap;html=1;" vertex="1" parent="1">
          <mxGeometry x="40" y="280" width="80" height="40" as="geometry" />
        </mxCell>
        <mxCell id="ZugXrchefKqxSvf9OSXH-3" value="censusRoot" style="rounded=0;whiteSpace=wrap;html=1;" vertex="1" parent="1">
          <mxGeometry x="160" y="280" width="80" height="40" as="geometry" />
        </mxCell>
        <mxCell id="ZugXrchefKqxSvf9OSXH-4" value="ballotMode" style="rounded=0;whiteSpace=wrap;html=1;" vertex="1" parent="1">
          <mxGeometry x="280" y="280" width="80" height="40" as="geometry" />
        </mxCell>
        <mxCell id="ZugXrchefKqxSvf9OSXH-5" value="EPK" style="rounded=0;whiteSpace=wrap;html=1;" vertex="1" parent="1">
          <mxGeometry x="400" y="280" width="80" height="40" as="geometry" />
        </mxCell>
        <mxCell id="ZugXrchefKqxSvf9OSXH-7" value="results add" style="rounded=0;whiteSpace=wrap;html=1;" vertex="1" parent="1">
          <mxGeometry x="520" y="280" width="80" height="40" as="geometry" />
        </mxCell>
        <mxCell id="ZugXrchefKqxSvf9OSXH-8" value="results sub" style="rounded=0;whiteSpace=wrap;html=1;" vertex="1" parent="1">
          <mxGeometry x="640" y="280" width="80" height="40" as="geometry" />
        </mxCell>
        <mxCell id="ZugXrchefKqxSvf9OSXH-9" value="encrypted ballots [...]" style="rounded=0;whiteSpace=wrap;html=1;" vertex="1" parent="1">
          <mxGeometry x="760" y="280" width="80" height="40" as="geometry" />
        </mxCell>
        <mxCell id="ZugXrchefKqxSvf9OSXH-10" value="commitments [...]" style="rounded=0;whiteSpace=wrap;html=1;" vertex="1" parent="1">
          <mxGeometry x="880" y="280" width="80" height="40" as="geometry" />
        </mxCell>
        <mxCell id="ZugXrchefKqxSvf9OSXH-11" value="nullifiers [...]" style="rounded=0;whiteSpace=wrap;html=1;" vertex="1" parent="1">
          <mxGeometry x="760" y="200" width="80" height="40" as="geometry" />
        </mxCell>
        <mxCell id="ZugXrchefKqxSvf9OSXH-12" value="addresses [...]" style="rounded=0;whiteSpace=wrap;html=1;" vertex="1" parent="1">
          <mxGeometry x="880" y="200" width="80" height="40" as="geometry" />
        </mxCell>
        <mxCell id="ZugXrchefKqxSvf9OSXH-14" value="" style="endArrow=classic;html=1;rounded=0;entryX=0.129;entryY=0.976;entryDx=0;entryDy=0;entryPerimeter=0;exitX=0.5;exitY=0;exitDx=0;exitDy=0;" edge="1" parent="1" source="ZugXrchefKqxSvf9OSXH-2" target="ZugXrchefKqxSvf9OSXH-15">
          <mxGeometry width="50" height="50" relative="1" as="geometry">
            <mxPoint x="70" y="280" as="sourcePoint" />
            <mxPoint x="330" y="240" as="targetPoint" />
            <Array as="points">
              <mxPoint x="80" y="250" />
              <mxPoint x="210" y="250" />
              <mxPoint x="350" y="250" />
            </Array>
          </mxGeometry>
        </mxCell>
        <mxCell id="ZugXrchefKqxSvf9OSXH-15" value="hash()" style="rounded=0;whiteSpace=wrap;html=1;" vertex="1" parent="1">
          <mxGeometry x="340" y="200" width="80" height="40" as="geometry" />
        </mxCell>
        <mxCell id="ZugXrchefKqxSvf9OSXH-16" value="" style="endArrow=classic;html=1;rounded=0;entryX=0.25;entryY=1;entryDx=0;entryDy=0;" edge="1" parent="1" target="ZugXrchefKqxSvf9OSXH-15">
          <mxGeometry width="50" height="50" relative="1" as="geometry">
            <mxPoint x="200" y="280" as="sourcePoint" />
            <mxPoint x="460" y="240" as="targetPoint" />
            <Array as="points">
              <mxPoint x="200" y="260" />
              <mxPoint x="340" y="260" />
              <mxPoint x="360" y="260" />
            </Array>
          </mxGeometry>
        </mxCell>
        <mxCell id="ZugXrchefKqxSvf9OSXH-17" value="" style="endArrow=classic;html=1;rounded=0;entryX=0.374;entryY=1.002;entryDx=0;entryDy=0;entryPerimeter=0;" edge="1" parent="1" target="ZugXrchefKqxSvf9OSXH-15">
          <mxGeometry width="50" height="50" relative="1" as="geometry">
            <mxPoint x="320" y="280" as="sourcePoint" />
            <mxPoint x="480" y="240" as="targetPoint" />
            <Array as="points">
              <mxPoint x="320" y="270" />
              <mxPoint x="370" y="270" />
            </Array>
          </mxGeometry>
        </mxCell>
        <mxCell id="ZugXrchefKqxSvf9OSXH-18" value="" style="endArrow=classic;html=1;rounded=0;entryX=0.617;entryY=1.012;entryDx=0;entryDy=0;entryPerimeter=0;exitX=0.5;exitY=0;exitDx=0;exitDy=0;" edge="1" parent="1" source="ZugXrchefKqxSvf9OSXH-5" target="ZugXrchefKqxSvf9OSXH-15">
          <mxGeometry width="50" height="50" relative="1" as="geometry">
            <mxPoint x="330" y="280" as="sourcePoint" />
            <mxPoint x="380" y="240" as="targetPoint" />
            <Array as="points">
              <mxPoint x="440" y="270" />
              <mxPoint x="390" y="270" />
            </Array>
          </mxGeometry>
        </mxCell>
        <mxCell id="ZugXrchefKqxSvf9OSXH-19" value="" style="endArrow=classic;html=1;rounded=0;entryX=0.75;entryY=1;entryDx=0;entryDy=0;exitX=0.5;exitY=0;exitDx=0;exitDy=0;" edge="1" parent="1" source="ZugXrchefKqxSvf9OSXH-7" target="ZugXrchefKqxSvf9OSXH-15">
          <mxGeometry width="50" height="50" relative="1" as="geometry">
            <mxPoint x="230" y="280" as="sourcePoint" />
            <mxPoint x="390" y="240" as="targetPoint" />
            <Array as="points">
              <mxPoint x="560" y="260" />
              <mxPoint x="400" y="260" />
            </Array>
          </mxGeometry>
        </mxCell>
        <mxCell id="ZugXrchefKqxSvf9OSXH-20" value="" style="endArrow=classic;html=1;rounded=0;entryX=0.877;entryY=0.995;entryDx=0;entryDy=0;entryPerimeter=0;exitX=0.5;exitY=0;exitDx=0;exitDy=0;" edge="1" parent="1" source="ZugXrchefKqxSvf9OSXH-8" target="ZugXrchefKqxSvf9OSXH-15">
          <mxGeometry width="50" height="50" relative="1" as="geometry">
            <mxPoint x="640" y="260" as="sourcePoint" />
            <mxPoint x="400" y="240" as="targetPoint" />
            <Array as="points">
              <mxPoint x="680" y="250" />
              <mxPoint x="410" y="250" />
            </Array>
          </mxGeometry>
        </mxCell>
        <mxCell id="ZugXrchefKqxSvf9OSXH-22" value="" style="endArrow=classic;html=1;rounded=0;entryX=0.5;entryY=1;entryDx=0;entryDy=0;" edge="1" parent="1" target="ZugXrchefKqxSvf9OSXH-11">
          <mxGeometry width="50" height="50" relative="1" as="geometry">
            <mxPoint x="800" y="280" as="sourcePoint" />
            <mxPoint x="850" y="230" as="targetPoint" />
          </mxGeometry>
        </mxCell>
        <mxCell id="ZugXrchefKqxSvf9OSXH-23" value="" style="endArrow=classic;html=1;rounded=0;entryX=0.5;entryY=1;entryDx=0;entryDy=0;" edge="1" parent="1">
          <mxGeometry width="50" height="50" relative="1" as="geometry">
            <mxPoint x="919.5699999999999" y="280" as="sourcePoint" />
            <mxPoint x="919.5699999999999" y="240" as="targetPoint" />
          </mxGeometry>
        </mxCell>
        <mxCell id="ZugXrchefKqxSvf9OSXH-25" value="" style="endArrow=classic;html=1;rounded=0;" edge="1" parent="1">
          <mxGeometry width="50" height="50" relative="1" as="geometry">
            <mxPoint x="380" y="200" as="sourcePoint" />
            <mxPoint x="430" y="160" as="targetPoint" />
            <Array as="points">
              <mxPoint x="380" y="180" />
              <mxPoint x="430" y="180" />
            </Array>
          </mxGeometry>
        </mxCell>
        <mxCell id="ZugXrchefKqxSvf9OSXH-26" value="" style="endArrow=classic;html=1;rounded=0;" edge="1" parent="1">
          <mxGeometry width="50" height="50" relative="1" as="geometry">
            <mxPoint x="800" y="200" as="sourcePoint" />
            <mxPoint x="720" y="160" as="targetPoint" />
            <Array as="points">
              <mxPoint x="800" y="180" />
              <mxPoint x="720" y="180" />
            </Array>
          </mxGeometry>
        </mxCell>
        <mxCell id="ZugXrchefKqxSvf9OSXH-27" value="" style="endArrow=classic;html=1;rounded=0;" edge="1" parent="1">
          <mxGeometry width="50" height="50" relative="1" as="geometry">
            <mxPoint x="920" y="200" as="sourcePoint" />
            <mxPoint x="840" y="160" as="targetPoint" />
            <Array as="points">
              <mxPoint x="920" y="180" />
              <mxPoint x="840" y="180" />
            </Array>
          </mxGeometry>
        </mxCell>
        <mxCell id="ZugXrchefKqxSvf9OSXH-28" value="hash()" style="rounded=0;whiteSpace=wrap;html=1;" vertex="1" parent="1">
          <mxGeometry x="390" y="120" width="80" height="40" as="geometry" />
        </mxCell>
        <mxCell id="ZugXrchefKqxSvf9OSXH-29" value="hash()" style="rounded=0;whiteSpace=wrap;html=1;" vertex="1" parent="1">
          <mxGeometry x="680" y="120" width="80" height="40" as="geometry" />
        </mxCell>
        <mxCell id="ZugXrchefKqxSvf9OSXH-30" value="hash()" style="rounded=0;whiteSpace=wrap;html=1;" vertex="1" parent="1">
          <mxGeometry x="800" y="120" width="80" height="40" as="geometry" />
        </mxCell>
        <mxCell id="ZugXrchefKqxSvf9OSXH-31" value="" style="endArrow=none;dashed=1;html=1;dashPattern=1 3;strokeWidth=2;rounded=0;" edge="1" parent="1">
          <mxGeometry width="50" height="50" relative="1" as="geometry">
            <mxPoint x="500" y="139.57" as="sourcePoint" />
            <mxPoint x="640" y="139.57" as="targetPoint" />
          </mxGeometry>
        </mxCell>
        <mxCell id="ZugXrchefKqxSvf9OSXH-33" value="" style="endArrow=classic;html=1;rounded=0;" edge="1" parent="1">
          <mxGeometry width="50" height="50" relative="1" as="geometry">
            <mxPoint x="559.57" y="90" as="sourcePoint" />
            <mxPoint x="559.57" y="60" as="targetPoint" />
          </mxGeometry>
        </mxCell>
        <mxCell id="ZugXrchefKqxSvf9OSXH-34" value="0x0" style="text;html=1;align=center;verticalAlign=middle;whiteSpace=wrap;rounded=0;" vertex="1" parent="1">
          <mxGeometry x="50" y="320" width="60" height="30" as="geometry" />
        </mxCell>
        <mxCell id="ZugXrchefKqxSvf9OSXH-35" value="0x1" style="text;html=1;align=center;verticalAlign=middle;whiteSpace=wrap;rounded=0;" vertex="1" parent="1">
          <mxGeometry x="170" y="320" width="60" height="30" as="geometry" />
        </mxCell>
        <mxCell id="ZugXrchefKqxSvf9OSXH-36" value="0x2" style="text;html=1;align=center;verticalAlign=middle;whiteSpace=wrap;rounded=0;" vertex="1" parent="1">
          <mxGeometry x="290" y="320" width="60" height="30" as="geometry" />
        </mxCell>
        <mxCell id="ZugXrchefKqxSvf9OSXH-37" value="0x3" style="text;html=1;align=center;verticalAlign=middle;whiteSpace=wrap;rounded=0;" vertex="1" parent="1">
          <mxGeometry x="410" y="320" width="60" height="30" as="geometry" />
        </mxCell>
        <mxCell id="ZugXrchefKqxSvf9OSXH-38" value="0x4" style="text;html=1;align=center;verticalAlign=middle;whiteSpace=wrap;rounded=0;" vertex="1" parent="1">
          <mxGeometry x="530" y="320" width="60" height="30" as="geometry" />
        </mxCell>
        <mxCell id="ZugXrchefKqxSvf9OSXH-39" value="0x5" style="text;html=1;align=center;verticalAlign=middle;whiteSpace=wrap;rounded=0;" vertex="1" parent="1">
          <mxGeometry x="650" y="320" width="60" height="30" as="geometry" />
        </mxCell>
        <mxCell id="ZugXrchefKqxSvf9OSXH-41" value="state MT structure" style="text;html=1;align=center;verticalAlign=middle;whiteSpace=wrap;rounded=0;fontStyle=1" vertex="1" parent="1">
          <mxGeometry x="30" y="10" width="120" height="30" as="geometry" />
        </mxCell>
      </root>
    </mxGraphModel>
  </diagram>
  <diagram name="Copy of Page-1" id="IuNJlO7Yu6gslcnrkaAP">
    <mxGraphModel dx="2883" dy="2623" grid="1" gridSize="10" guides="1" tooltips="1" connect="1" arrows="1" fold="1" page="1" pageScale="1" pageWidth="850" pageHeight="1100" math="0" shadow="0">
      <root>
        <mxCell id="Mhd92hIq7de9pidu9jlM-0" />
        <mxCell id="Mhd92hIq7de9pidu9jlM-1" parent="Mhd92hIq7de9pidu9jlM-0" />
        <mxCell id="Mhd92hIq7de9pidu9jlM-3" value="root" style="rounded=0;whiteSpace=wrap;html=1;fillColor=#f8cecc;strokeColor=#b85450;fontStyle=1" vertex="1" parent="Mhd92hIq7de9pidu9jlM-1">
          <mxGeometry x="880" y="-200" width="80" height="40" as="geometry" />
        </mxCell>
        <mxCell id="Mhd92hIq7de9pidu9jlM-4" value="processID" style="rounded=0;whiteSpace=wrap;html=1;fillColor=#d5e8d4;strokeColor=#82b366;" vertex="1" parent="Mhd92hIq7de9pidu9jlM-1">
          <mxGeometry x="40" y="290" width="80" height="30" as="geometry" />
        </mxCell>
        <mxCell id="Mhd92hIq7de9pidu9jlM-5" value="censusRoot" style="rounded=0;whiteSpace=wrap;html=1;fillColor=#d5e8d4;strokeColor=#82b366;" vertex="1" parent="Mhd92hIq7de9pidu9jlM-1">
          <mxGeometry x="160" y="290" width="80" height="30" as="geometry" />
        </mxCell>
        <mxCell id="Mhd92hIq7de9pidu9jlM-6" value="ballotMode" style="rounded=0;whiteSpace=wrap;html=1;fillColor=#d5e8d4;strokeColor=#82b366;" vertex="1" parent="Mhd92hIq7de9pidu9jlM-1">
          <mxGeometry x="280" y="290" width="80" height="30" as="geometry" />
        </mxCell>
        <mxCell id="Mhd92hIq7de9pidu9jlM-7" value="EPK" style="rounded=0;whiteSpace=wrap;html=1;fillColor=#d5e8d4;strokeColor=#82b366;" vertex="1" parent="Mhd92hIq7de9pidu9jlM-1">
          <mxGeometry x="399" y="290" width="80" height="30" as="geometry" />
        </mxCell>
        <mxCell id="Mhd92hIq7de9pidu9jlM-8" value="results add" style="rounded=0;whiteSpace=wrap;html=1;fillColor=#fff2cc;strokeColor=#d6b656;" vertex="1" parent="Mhd92hIq7de9pidu9jlM-1">
          <mxGeometry x="520" y="290" width="80" height="30" as="geometry" />
        </mxCell>
        <mxCell id="Mhd92hIq7de9pidu9jlM-9" value="results sub" style="rounded=0;whiteSpace=wrap;html=1;fillColor=#fff2cc;strokeColor=#d6b656;" vertex="1" parent="Mhd92hIq7de9pidu9jlM-1">
          <mxGeometry x="640" y="290" width="80" height="30" as="geometry" />
        </mxCell>
        <mxCell id="69IrlhlLYIJc4Z5VFMfy-7" value="hash()" style="rounded=0;whiteSpace=wrap;html=1;" vertex="1" parent="Mhd92hIq7de9pidu9jlM-1">
          <mxGeometry x="640" y="240" width="80" height="30" as="geometry" />
        </mxCell>
        <mxCell id="69IrlhlLYIJc4Z5VFMfy-9" value="hash()" style="rounded=0;whiteSpace=wrap;html=1;" vertex="1" parent="Mhd92hIq7de9pidu9jlM-1">
          <mxGeometry x="339.69" y="180" width="80" height="30" as="geometry" />
        </mxCell>
        <mxCell id="HkwgHHsKWqpLjxovWTy6-5" value="" style="endArrow=classic;html=1;rounded=0;entryX=0.5;entryY=1;entryDx=0;entryDy=0;exitX=0.5;exitY=0;exitDx=0;exitDy=0;" edge="1" parent="Mhd92hIq7de9pidu9jlM-1" source="Mhd92hIq7de9pidu9jlM-9" target="69IrlhlLYIJc4Z5VFMfy-7">
          <mxGeometry width="50" height="50" relative="1" as="geometry">
            <mxPoint x="679" y="290" as="sourcePoint" />
            <mxPoint x="679.38" y="270" as="targetPoint" />
          </mxGeometry>
        </mxCell>
        <mxCell id="HkwgHHsKWqpLjxovWTy6-8" value="" style="endArrow=classic;html=1;rounded=0;exitX=0.5;exitY=0;exitDx=0;exitDy=0;entryX=0.378;entryY=1.001;entryDx=0;entryDy=0;entryPerimeter=0;" edge="1" parent="Mhd92hIq7de9pidu9jlM-1" source="HkwgHHsKWqpLjxovWTy6-18" target="69IrlhlLYIJc4Z5VFMfy-9">
          <mxGeometry width="50" height="50" relative="1" as="geometry">
            <mxPoint x="319.38" y="240" as="sourcePoint" />
            <mxPoint x="370" y="220" as="targetPoint" />
            <Array as="points">
              <mxPoint x="320" y="230" />
              <mxPoint x="350" y="230" />
              <mxPoint x="370" y="230" />
            </Array>
          </mxGeometry>
        </mxCell>
        <mxCell id="HkwgHHsKWqpLjxovWTy6-9" value="" style="endArrow=classic;html=1;rounded=0;exitX=0.5;exitY=0;exitDx=0;exitDy=0;entryX=0.628;entryY=0.989;entryDx=0;entryDy=0;entryPerimeter=0;" edge="1" parent="Mhd92hIq7de9pidu9jlM-1" target="69IrlhlLYIJc4Z5VFMfy-9">
          <mxGeometry width="50" height="50" relative="1" as="geometry">
            <mxPoint x="440" y="240" as="sourcePoint" />
            <mxPoint x="390" y="220" as="targetPoint" />
            <Array as="points">
              <mxPoint x="440" y="230" />
              <mxPoint x="390" y="230" />
            </Array>
          </mxGeometry>
        </mxCell>
        <mxCell id="HkwgHHsKWqpLjxovWTy6-12" value="hash()" style="rounded=0;whiteSpace=wrap;html=1;" vertex="1" parent="Mhd92hIq7de9pidu9jlM-1">
          <mxGeometry x="520" y="240" width="80" height="30" as="geometry" />
        </mxCell>
        <mxCell id="HkwgHHsKWqpLjxovWTy6-13" value="" style="endArrow=classic;html=1;rounded=0;entryX=0.5;entryY=1;entryDx=0;entryDy=0;exitX=0.5;exitY=0;exitDx=0;exitDy=0;" edge="1" parent="Mhd92hIq7de9pidu9jlM-1" target="HkwgHHsKWqpLjxovWTy6-12">
          <mxGeometry width="50" height="50" relative="1" as="geometry">
            <mxPoint x="560" y="290" as="sourcePoint" />
            <mxPoint x="559.38" y="270" as="targetPoint" />
          </mxGeometry>
        </mxCell>
        <mxCell id="HkwgHHsKWqpLjxovWTy6-14" value="hash()" style="rounded=0;whiteSpace=wrap;html=1;" vertex="1" parent="Mhd92hIq7de9pidu9jlM-1">
          <mxGeometry x="40" y="240" width="80" height="30" as="geometry" />
        </mxCell>
        <mxCell id="HkwgHHsKWqpLjxovWTy6-15" value="" style="endArrow=classic;html=1;rounded=0;entryX=0.5;entryY=1;entryDx=0;entryDy=0;exitX=0.5;exitY=0;exitDx=0;exitDy=0;" edge="1" parent="Mhd92hIq7de9pidu9jlM-1" target="HkwgHHsKWqpLjxovWTy6-14">
          <mxGeometry width="50" height="50" relative="1" as="geometry">
            <mxPoint x="80" y="290" as="sourcePoint" />
            <mxPoint x="79.38" y="270" as="targetPoint" />
          </mxGeometry>
        </mxCell>
        <mxCell id="HkwgHHsKWqpLjxovWTy6-16" value="hash()" style="rounded=0;whiteSpace=wrap;html=1;" vertex="1" parent="Mhd92hIq7de9pidu9jlM-1">
          <mxGeometry x="160" y="240" width="80" height="30" as="geometry" />
        </mxCell>
        <mxCell id="HkwgHHsKWqpLjxovWTy6-17" value="" style="endArrow=classic;html=1;rounded=0;entryX=0.5;entryY=1;entryDx=0;entryDy=0;exitX=0.5;exitY=0;exitDx=0;exitDy=0;" edge="1" parent="Mhd92hIq7de9pidu9jlM-1" target="HkwgHHsKWqpLjxovWTy6-16">
          <mxGeometry width="50" height="50" relative="1" as="geometry">
            <mxPoint x="200" y="290" as="sourcePoint" />
            <mxPoint x="199.38" y="270" as="targetPoint" />
          </mxGeometry>
        </mxCell>
        <mxCell id="HkwgHHsKWqpLjxovWTy6-18" value="hash()" style="rounded=0;whiteSpace=wrap;html=1;" vertex="1" parent="Mhd92hIq7de9pidu9jlM-1">
          <mxGeometry x="280" y="240" width="80" height="30" as="geometry" />
        </mxCell>
        <mxCell id="HkwgHHsKWqpLjxovWTy6-19" value="" style="endArrow=classic;html=1;rounded=0;entryX=0.5;entryY=1;entryDx=0;entryDy=0;exitX=0.5;exitY=0;exitDx=0;exitDy=0;" edge="1" parent="Mhd92hIq7de9pidu9jlM-1" target="HkwgHHsKWqpLjxovWTy6-18">
          <mxGeometry width="50" height="50" relative="1" as="geometry">
            <mxPoint x="320" y="290" as="sourcePoint" />
            <mxPoint x="319.38" y="270" as="targetPoint" />
          </mxGeometry>
        </mxCell>
        <mxCell id="HkwgHHsKWqpLjxovWTy6-20" value="hash()" style="rounded=0;whiteSpace=wrap;html=1;" vertex="1" parent="Mhd92hIq7de9pidu9jlM-1">
          <mxGeometry x="399" y="240" width="80" height="30" as="geometry" />
        </mxCell>
        <mxCell id="HkwgHHsKWqpLjxovWTy6-21" value="" style="endArrow=classic;html=1;rounded=0;entryX=0.5;entryY=1;entryDx=0;entryDy=0;exitX=0.5;exitY=0;exitDx=0;exitDy=0;" edge="1" parent="Mhd92hIq7de9pidu9jlM-1" target="HkwgHHsKWqpLjxovWTy6-20">
          <mxGeometry width="50" height="50" relative="1" as="geometry">
            <mxPoint x="439" y="290" as="sourcePoint" />
            <mxPoint x="438.38" y="270" as="targetPoint" />
          </mxGeometry>
        </mxCell>
        <mxCell id="HkwgHHsKWqpLjxovWTy6-22" value="hash()" style="rounded=0;whiteSpace=wrap;html=1;" vertex="1" parent="Mhd92hIq7de9pidu9jlM-1">
          <mxGeometry x="99.69" y="180" width="80" height="30" as="geometry" />
        </mxCell>
        <mxCell id="HkwgHHsKWqpLjxovWTy6-23" value="" style="endArrow=classic;html=1;rounded=0;exitX=0.5;exitY=0;exitDx=0;exitDy=0;entryX=0.378;entryY=1.001;entryDx=0;entryDy=0;entryPerimeter=0;" edge="1" parent="Mhd92hIq7de9pidu9jlM-1" target="HkwgHHsKWqpLjxovWTy6-22">
          <mxGeometry width="50" height="50" relative="1" as="geometry">
            <mxPoint x="80" y="240" as="sourcePoint" />
            <mxPoint x="130" y="220" as="targetPoint" />
            <Array as="points">
              <mxPoint x="80" y="230" />
              <mxPoint x="110" y="230" />
              <mxPoint x="130" y="230" />
            </Array>
          </mxGeometry>
        </mxCell>
        <mxCell id="HkwgHHsKWqpLjxovWTy6-24" value="" style="endArrow=classic;html=1;rounded=0;exitX=0.5;exitY=0;exitDx=0;exitDy=0;entryX=0.628;entryY=0.989;entryDx=0;entryDy=0;entryPerimeter=0;" edge="1" parent="Mhd92hIq7de9pidu9jlM-1" target="HkwgHHsKWqpLjxovWTy6-22">
          <mxGeometry width="50" height="50" relative="1" as="geometry">
            <mxPoint x="200" y="240" as="sourcePoint" />
            <mxPoint x="150" y="220" as="targetPoint" />
            <Array as="points">
              <mxPoint x="200" y="230" />
              <mxPoint x="150" y="230" />
            </Array>
          </mxGeometry>
        </mxCell>
        <mxCell id="HkwgHHsKWqpLjxovWTy6-25" value="hash()" style="rounded=0;whiteSpace=wrap;html=1;" vertex="1" parent="Mhd92hIq7de9pidu9jlM-1">
          <mxGeometry x="579.69" y="180" width="80" height="30" as="geometry" />
        </mxCell>
        <mxCell id="HkwgHHsKWqpLjxovWTy6-26" value="" style="endArrow=classic;html=1;rounded=0;exitX=0.5;exitY=0;exitDx=0;exitDy=0;entryX=0.378;entryY=1.001;entryDx=0;entryDy=0;entryPerimeter=0;" edge="1" parent="Mhd92hIq7de9pidu9jlM-1" target="HkwgHHsKWqpLjxovWTy6-25">
          <mxGeometry width="50" height="50" relative="1" as="geometry">
            <mxPoint x="560" y="240" as="sourcePoint" />
            <mxPoint x="610" y="220" as="targetPoint" />
            <Array as="points">
              <mxPoint x="560" y="230" />
              <mxPoint x="590" y="230" />
              <mxPoint x="610" y="230" />
            </Array>
          </mxGeometry>
        </mxCell>
        <mxCell id="HkwgHHsKWqpLjxovWTy6-27" value="" style="endArrow=classic;html=1;rounded=0;exitX=0.5;exitY=0;exitDx=0;exitDy=0;entryX=0.628;entryY=0.989;entryDx=0;entryDy=0;entryPerimeter=0;" edge="1" parent="Mhd92hIq7de9pidu9jlM-1" target="HkwgHHsKWqpLjxovWTy6-25">
          <mxGeometry width="50" height="50" relative="1" as="geometry">
            <mxPoint x="680" y="240" as="sourcePoint" />
            <mxPoint x="630" y="220" as="targetPoint" />
            <Array as="points">
              <mxPoint x="680" y="230" />
              <mxPoint x="630" y="230" />
            </Array>
          </mxGeometry>
        </mxCell>
        <mxCell id="HkwgHHsKWqpLjxovWTy6-28" value="hash()" style="rounded=0;whiteSpace=wrap;html=1;" vertex="1" parent="Mhd92hIq7de9pidu9jlM-1">
          <mxGeometry x="220" y="120" width="80" height="30" as="geometry" />
        </mxCell>
        <mxCell id="HkwgHHsKWqpLjxovWTy6-29" value="" style="endArrow=classic;html=1;rounded=0;exitX=0.5;exitY=0;exitDx=0;exitDy=0;entryX=0.378;entryY=1.001;entryDx=0;entryDy=0;entryPerimeter=0;" edge="1" parent="Mhd92hIq7de9pidu9jlM-1" target="HkwgHHsKWqpLjxovWTy6-28">
          <mxGeometry width="50" height="50" relative="1" as="geometry">
            <mxPoint x="140" y="180" as="sourcePoint" />
            <mxPoint x="190" y="160" as="targetPoint" />
            <Array as="points">
              <mxPoint x="140" y="170" />
              <mxPoint x="170" y="170" />
              <mxPoint x="190" y="170" />
              <mxPoint x="250" y="170" />
            </Array>
          </mxGeometry>
        </mxCell>
        <mxCell id="HkwgHHsKWqpLjxovWTy6-30" value="" style="endArrow=classic;html=1;rounded=0;exitX=0.5;exitY=0;exitDx=0;exitDy=0;entryX=0.625;entryY=1.005;entryDx=0;entryDy=0;entryPerimeter=0;" edge="1" parent="Mhd92hIq7de9pidu9jlM-1" target="HkwgHHsKWqpLjxovWTy6-28">
          <mxGeometry width="50" height="50" relative="1" as="geometry">
            <mxPoint x="380" y="180" as="sourcePoint" />
            <mxPoint x="329.9300000000003" y="149.67000000000007" as="targetPoint" />
            <Array as="points">
              <mxPoint x="380" y="170" />
              <mxPoint x="270" y="170" />
            </Array>
          </mxGeometry>
        </mxCell>
        <mxCell id="HkwgHHsKWqpLjxovWTy6-31" value="hash()" style="rounded=0;whiteSpace=wrap;html=1;" vertex="1" parent="Mhd92hIq7de9pidu9jlM-1">
          <mxGeometry x="700" y="120" width="80" height="30" as="geometry" />
        </mxCell>
        <mxCell id="HkwgHHsKWqpLjxovWTy6-32" value="" style="endArrow=classic;html=1;rounded=0;exitX=0.5;exitY=0;exitDx=0;exitDy=0;entryX=0.378;entryY=1.001;entryDx=0;entryDy=0;entryPerimeter=0;" edge="1" parent="Mhd92hIq7de9pidu9jlM-1" target="HkwgHHsKWqpLjxovWTy6-31">
          <mxGeometry width="50" height="50" relative="1" as="geometry">
            <mxPoint x="620" y="180" as="sourcePoint" />
            <mxPoint x="670" y="160" as="targetPoint" />
            <Array as="points">
              <mxPoint x="620" y="170" />
              <mxPoint x="650" y="170" />
              <mxPoint x="670" y="170" />
              <mxPoint x="730" y="170" />
            </Array>
          </mxGeometry>
        </mxCell>
        <mxCell id="HkwgHHsKWqpLjxovWTy6-33" value="" style="endArrow=classic;html=1;rounded=0;exitX=0.5;exitY=0;exitDx=0;exitDy=0;entryX=0.625;entryY=1.005;entryDx=0;entryDy=0;entryPerimeter=0;" edge="1" parent="Mhd92hIq7de9pidu9jlM-1" target="HkwgHHsKWqpLjxovWTy6-31">
          <mxGeometry width="50" height="50" relative="1" as="geometry">
            <mxPoint x="860" y="180" as="sourcePoint" />
            <mxPoint x="809.9300000000003" y="149.67000000000007" as="targetPoint" />
            <Array as="points">
              <mxPoint x="860" y="170" />
              <mxPoint x="750" y="170" />
            </Array>
          </mxGeometry>
        </mxCell>
        <mxCell id="HkwgHHsKWqpLjxovWTy6-36" value="hash()" style="rounded=0;whiteSpace=wrap;html=1;" vertex="1" parent="Mhd92hIq7de9pidu9jlM-1">
          <mxGeometry x="880" y="240" width="80" height="30" as="geometry" />
        </mxCell>
        <mxCell id="HkwgHHsKWqpLjxovWTy6-37" value="" style="endArrow=classic;html=1;rounded=0;entryX=0.5;entryY=1;entryDx=0;entryDy=0;exitX=0.5;exitY=0;exitDx=0;exitDy=0;" edge="1" parent="Mhd92hIq7de9pidu9jlM-1" target="HkwgHHsKWqpLjxovWTy6-36">
          <mxGeometry width="50" height="50" relative="1" as="geometry">
            <mxPoint x="920" y="290" as="sourcePoint" />
            <mxPoint x="919.38" y="270" as="targetPoint" />
          </mxGeometry>
        </mxCell>
        <mxCell id="HkwgHHsKWqpLjxovWTy6-38" value="hash()" style="rounded=0;whiteSpace=wrap;html=1;" vertex="1" parent="Mhd92hIq7de9pidu9jlM-1">
          <mxGeometry x="760" y="240" width="80" height="30" as="geometry" />
        </mxCell>
        <mxCell id="HkwgHHsKWqpLjxovWTy6-39" value="" style="endArrow=classic;html=1;rounded=0;entryX=0.5;entryY=1;entryDx=0;entryDy=0;exitX=0.5;exitY=0;exitDx=0;exitDy=0;" edge="1" parent="Mhd92hIq7de9pidu9jlM-1" target="HkwgHHsKWqpLjxovWTy6-38">
          <mxGeometry width="50" height="50" relative="1" as="geometry">
            <mxPoint x="800" y="290" as="sourcePoint" />
            <mxPoint x="799.38" y="270" as="targetPoint" />
          </mxGeometry>
        </mxCell>
        <mxCell id="HkwgHHsKWqpLjxovWTy6-40" value="hash()" style="rounded=0;whiteSpace=wrap;html=1;" vertex="1" parent="Mhd92hIq7de9pidu9jlM-1">
          <mxGeometry x="819.69" y="180" width="80" height="30" as="geometry" />
        </mxCell>
        <mxCell id="HkwgHHsKWqpLjxovWTy6-41" value="" style="endArrow=classic;html=1;rounded=0;exitX=0.5;exitY=0;exitDx=0;exitDy=0;entryX=0.378;entryY=1.001;entryDx=0;entryDy=0;entryPerimeter=0;" edge="1" parent="Mhd92hIq7de9pidu9jlM-1" target="HkwgHHsKWqpLjxovWTy6-40">
          <mxGeometry width="50" height="50" relative="1" as="geometry">
            <mxPoint x="800" y="240" as="sourcePoint" />
            <mxPoint x="850" y="220" as="targetPoint" />
            <Array as="points">
              <mxPoint x="800" y="230" />
              <mxPoint x="830" y="230" />
              <mxPoint x="850" y="230" />
            </Array>
          </mxGeometry>
        </mxCell>
        <mxCell id="HkwgHHsKWqpLjxovWTy6-42" value="" style="endArrow=classic;html=1;rounded=0;exitX=0.5;exitY=0;exitDx=0;exitDy=0;entryX=0.628;entryY=0.989;entryDx=0;entryDy=0;entryPerimeter=0;" edge="1" parent="Mhd92hIq7de9pidu9jlM-1" target="HkwgHHsKWqpLjxovWTy6-40">
          <mxGeometry width="50" height="50" relative="1" as="geometry">
            <mxPoint x="920" y="240" as="sourcePoint" />
            <mxPoint x="870" y="220" as="targetPoint" />
            <Array as="points">
              <mxPoint x="920" y="230" />
              <mxPoint x="870" y="230" />
            </Array>
          </mxGeometry>
        </mxCell>
        <mxCell id="HkwgHHsKWqpLjxovWTy6-44" value="encrypted ballot" style="rounded=0;whiteSpace=wrap;html=1;fillColor=#dae8fc;strokeColor=#6c8ebf;" vertex="1" parent="Mhd92hIq7de9pidu9jlM-1">
          <mxGeometry x="1000" y="290" width="80" height="30" as="geometry" />
        </mxCell>
        <mxCell id="HkwgHHsKWqpLjxovWTy6-45" value="commitment" style="rounded=0;whiteSpace=wrap;html=1;fillColor=#e1d5e7;strokeColor=#9673a6;" vertex="1" parent="Mhd92hIq7de9pidu9jlM-1">
          <mxGeometry x="1520" y="290" width="80" height="30" as="geometry" />
        </mxCell>
        <mxCell id="HkwgHHsKWqpLjxovWTy6-48" value="hash()" style="rounded=0;whiteSpace=wrap;html=1;" vertex="1" parent="Mhd92hIq7de9pidu9jlM-1">
          <mxGeometry x="1000" y="240" width="80" height="30" as="geometry" />
        </mxCell>
        <mxCell id="HkwgHHsKWqpLjxovWTy6-49" value="" style="endArrow=classic;html=1;rounded=0;entryX=0.5;entryY=1;entryDx=0;entryDy=0;exitX=0.5;exitY=0;exitDx=0;exitDy=0;" edge="1" parent="Mhd92hIq7de9pidu9jlM-1" target="HkwgHHsKWqpLjxovWTy6-48">
          <mxGeometry width="50" height="50" relative="1" as="geometry">
            <mxPoint x="1040" y="290" as="sourcePoint" />
            <mxPoint x="1039.38" y="270" as="targetPoint" />
          </mxGeometry>
        </mxCell>
        <mxCell id="HkwgHHsKWqpLjxovWTy6-50" value="hash()" style="rounded=0;whiteSpace=wrap;html=1;" vertex="1" parent="Mhd92hIq7de9pidu9jlM-1">
          <mxGeometry x="1059.69" y="180" width="80" height="30" as="geometry" />
        </mxCell>
        <mxCell id="HkwgHHsKWqpLjxovWTy6-51" value="" style="endArrow=classic;html=1;rounded=0;exitX=0.5;exitY=0;exitDx=0;exitDy=0;entryX=0.378;entryY=1.001;entryDx=0;entryDy=0;entryPerimeter=0;" edge="1" parent="Mhd92hIq7de9pidu9jlM-1" target="HkwgHHsKWqpLjxovWTy6-50">
          <mxGeometry width="50" height="50" relative="1" as="geometry">
            <mxPoint x="1040" y="240" as="sourcePoint" />
            <mxPoint x="1090" y="220" as="targetPoint" />
            <Array as="points">
              <mxPoint x="1040" y="230" />
              <mxPoint x="1070" y="230" />
              <mxPoint x="1090" y="230" />
            </Array>
          </mxGeometry>
        </mxCell>
        <mxCell id="HkwgHHsKWqpLjxovWTy6-52" value="" style="endArrow=classic;html=1;rounded=0;entryX=0.628;entryY=0.989;entryDx=0;entryDy=0;entryPerimeter=0;dashed=1;" edge="1" parent="Mhd92hIq7de9pidu9jlM-1" target="HkwgHHsKWqpLjxovWTy6-50">
          <mxGeometry width="50" height="50" relative="1" as="geometry">
            <mxPoint x="1160" y="270" as="sourcePoint" />
            <mxPoint x="1110" y="220" as="targetPoint" />
            <Array as="points">
              <mxPoint x="1160" y="230" />
              <mxPoint x="1110" y="230" />
            </Array>
          </mxGeometry>
        </mxCell>
        <mxCell id="HkwgHHsKWqpLjxovWTy6-57" value="encrypted ballot" style="rounded=0;whiteSpace=wrap;html=1;fillColor=#dae8fc;strokeColor=#6c8ebf;" vertex="1" parent="Mhd92hIq7de9pidu9jlM-1">
          <mxGeometry x="1399" y="290" width="80" height="30" as="geometry" />
        </mxCell>
        <mxCell id="HkwgHHsKWqpLjxovWTy6-61" value="encrypted ballot" style="rounded=0;whiteSpace=wrap;html=1;fillColor=#dae8fc;strokeColor=#6c8ebf;" vertex="1" parent="Mhd92hIq7de9pidu9jlM-1">
          <mxGeometry x="760" y="290" width="80" height="30" as="geometry" />
        </mxCell>
        <mxCell id="HkwgHHsKWqpLjxovWTy6-62" value="commitment" style="rounded=0;whiteSpace=wrap;html=1;fillColor=#e1d5e7;strokeColor=#9673a6;" vertex="1" parent="Mhd92hIq7de9pidu9jlM-1">
          <mxGeometry x="880" y="290" width="80" height="30" as="geometry" />
        </mxCell>
        <mxCell id="HkwgHHsKWqpLjxovWTy6-63" value="" style="endArrow=none;dashed=1;html=1;rounded=0;" edge="1" parent="Mhd92hIq7de9pidu9jlM-1">
          <mxGeometry width="50" height="50" relative="1" as="geometry">
            <mxPoint x="1100" y="304.74" as="sourcePoint" />
            <mxPoint x="1380" y="305" as="targetPoint" />
          </mxGeometry>
        </mxCell>
        <mxCell id="HkwgHHsKWqpLjxovWTy6-64" value="hash()" style="rounded=0;whiteSpace=wrap;html=1;" vertex="1" parent="Mhd92hIq7de9pidu9jlM-1">
          <mxGeometry x="1399" y="240" width="80" height="30" as="geometry" />
        </mxCell>
        <mxCell id="HkwgHHsKWqpLjxovWTy6-66" value="leaf content" style="text;html=1;align=left;verticalAlign=middle;whiteSpace=wrap;rounded=0;fontStyle=1" vertex="1" parent="Mhd92hIq7de9pidu9jlM-1">
          <mxGeometry x="-70" y="290" width="70" height="30" as="geometry" />
        </mxCell>
        <mxCell id="HkwgHHsKWqpLjxovWTy6-67" value="&lt;b&gt;leaf index&lt;/b&gt;" style="text;html=1;align=left;verticalAlign=middle;whiteSpace=wrap;rounded=0;" vertex="1" parent="Mhd92hIq7de9pidu9jlM-1">
          <mxGeometry x="-70" y="330" width="70" height="20" as="geometry" />
        </mxCell>
        <mxCell id="HkwgHHsKWqpLjxovWTy6-69" value="commitment" style="rounded=0;whiteSpace=wrap;html=1;fillColor=#e1d5e7;strokeColor=#9673a6;" vertex="1" parent="Mhd92hIq7de9pidu9jlM-1">
          <mxGeometry x="1640" y="290" width="80" height="30" as="geometry" />
        </mxCell>
        <mxCell id="HkwgHHsKWqpLjxovWTy6-70" value="hash()" style="rounded=0;whiteSpace=wrap;html=1;" vertex="1" parent="Mhd92hIq7de9pidu9jlM-1">
          <mxGeometry x="1340" y="180" width="80" height="30" as="geometry" />
        </mxCell>
        <mxCell id="HkwgHHsKWqpLjxovWTy6-71" value="" style="endArrow=classic;html=1;rounded=0;exitX=0.5;exitY=0;exitDx=0;exitDy=0;entryX=0.628;entryY=0.989;entryDx=0;entryDy=0;entryPerimeter=0;" edge="1" parent="Mhd92hIq7de9pidu9jlM-1" target="HkwgHHsKWqpLjxovWTy6-70">
          <mxGeometry width="50" height="50" relative="1" as="geometry">
            <mxPoint x="1440.31" y="240" as="sourcePoint" />
            <mxPoint x="1390.31" y="220" as="targetPoint" />
            <Array as="points">
              <mxPoint x="1440.31" y="230" />
              <mxPoint x="1390.31" y="230" />
            </Array>
          </mxGeometry>
        </mxCell>
        <mxCell id="HkwgHHsKWqpLjxovWTy6-72" value="" style="endArrow=classic;html=1;rounded=0;entryX=0.378;entryY=1.001;entryDx=0;entryDy=0;entryPerimeter=0;dashed=1;" edge="1" parent="Mhd92hIq7de9pidu9jlM-1">
          <mxGeometry width="50" height="50" relative="1" as="geometry">
            <mxPoint x="1320" y="270" as="sourcePoint" />
            <mxPoint x="1370" y="210" as="targetPoint" />
            <Array as="points">
              <mxPoint x="1320" y="230" />
              <mxPoint x="1350" y="230" />
              <mxPoint x="1370" y="230" />
            </Array>
          </mxGeometry>
        </mxCell>
        <mxCell id="HkwgHHsKWqpLjxovWTy6-73" value="hash()" style="rounded=0;whiteSpace=wrap;html=1;" vertex="1" parent="Mhd92hIq7de9pidu9jlM-1">
          <mxGeometry x="1640" y="240" width="80" height="30" as="geometry" />
        </mxCell>
        <mxCell id="HkwgHHsKWqpLjxovWTy6-74" value="hash()" style="rounded=0;whiteSpace=wrap;html=1;" vertex="1" parent="Mhd92hIq7de9pidu9jlM-1">
          <mxGeometry x="1520" y="240" width="80" height="30" as="geometry" />
        </mxCell>
        <mxCell id="HkwgHHsKWqpLjxovWTy6-75" value="hash()" style="rounded=0;whiteSpace=wrap;html=1;" vertex="1" parent="Mhd92hIq7de9pidu9jlM-1">
          <mxGeometry x="1579.69" y="180" width="80" height="30" as="geometry" />
        </mxCell>
        <mxCell id="HkwgHHsKWqpLjxovWTy6-76" value="" style="endArrow=classic;html=1;rounded=0;exitX=0.5;exitY=0;exitDx=0;exitDy=0;entryX=0.378;entryY=1.001;entryDx=0;entryDy=0;entryPerimeter=0;" edge="1" parent="Mhd92hIq7de9pidu9jlM-1" target="HkwgHHsKWqpLjxovWTy6-75">
          <mxGeometry width="50" height="50" relative="1" as="geometry">
            <mxPoint x="1560" y="240" as="sourcePoint" />
            <mxPoint x="1610" y="220" as="targetPoint" />
            <Array as="points">
              <mxPoint x="1560" y="230" />
              <mxPoint x="1590" y="230" />
              <mxPoint x="1610" y="230" />
            </Array>
          </mxGeometry>
        </mxCell>
        <mxCell id="HkwgHHsKWqpLjxovWTy6-77" value="" style="endArrow=classic;html=1;rounded=0;exitX=0.5;exitY=0;exitDx=0;exitDy=0;entryX=0.628;entryY=0.989;entryDx=0;entryDy=0;entryPerimeter=0;" edge="1" parent="Mhd92hIq7de9pidu9jlM-1" target="HkwgHHsKWqpLjxovWTy6-75">
          <mxGeometry width="50" height="50" relative="1" as="geometry">
            <mxPoint x="1680" y="240" as="sourcePoint" />
            <mxPoint x="1630" y="220" as="targetPoint" />
            <Array as="points">
              <mxPoint x="1680" y="230" />
              <mxPoint x="1630" y="230" />
            </Array>
          </mxGeometry>
        </mxCell>
        <mxCell id="HkwgHHsKWqpLjxovWTy6-78" value="" style="endArrow=classic;html=1;rounded=0;entryX=0.5;entryY=1;entryDx=0;entryDy=0;exitX=0.5;exitY=0;exitDx=0;exitDy=0;" edge="1" parent="Mhd92hIq7de9pidu9jlM-1" source="HkwgHHsKWqpLjxovWTy6-69" target="HkwgHHsKWqpLjxovWTy6-73">
          <mxGeometry width="50" height="50" relative="1" as="geometry">
            <mxPoint x="1679.5" y="290" as="sourcePoint" />
            <mxPoint x="1679.5" y="270" as="targetPoint" />
          </mxGeometry>
        </mxCell>
        <mxCell id="HkwgHHsKWqpLjxovWTy6-81" value="" style="endArrow=classic;html=1;rounded=0;entryX=0.5;entryY=1;entryDx=0;entryDy=0;exitX=0.5;exitY=0;exitDx=0;exitDy=0;" edge="1" parent="Mhd92hIq7de9pidu9jlM-1" source="HkwgHHsKWqpLjxovWTy6-45" target="HkwgHHsKWqpLjxovWTy6-74">
          <mxGeometry width="50" height="50" relative="1" as="geometry">
            <mxPoint x="1660" y="270" as="sourcePoint" />
            <mxPoint x="1660" y="250" as="targetPoint" />
          </mxGeometry>
        </mxCell>
        <mxCell id="HkwgHHsKWqpLjxovWTy6-82" value="" style="endArrow=classic;html=1;rounded=0;entryX=0.5;entryY=1;entryDx=0;entryDy=0;exitX=0.5;exitY=0;exitDx=0;exitDy=0;" edge="1" parent="Mhd92hIq7de9pidu9jlM-1" source="HkwgHHsKWqpLjxovWTy6-57" target="HkwgHHsKWqpLjxovWTy6-64">
          <mxGeometry width="50" height="50" relative="1" as="geometry">
            <mxPoint x="1550" y="290" as="sourcePoint" />
            <mxPoint x="1550" y="270" as="targetPoint" />
          </mxGeometry>
        </mxCell>
        <mxCell id="HkwgHHsKWqpLjxovWTy6-92" value="hash()" style="rounded=0;whiteSpace=wrap;html=1;" vertex="1" parent="Mhd92hIq7de9pidu9jlM-1">
          <mxGeometry x="1460" y="120" width="80" height="30" as="geometry" />
        </mxCell>
        <mxCell id="HkwgHHsKWqpLjxovWTy6-93" value="" style="endArrow=classic;html=1;rounded=0;exitX=0.5;exitY=0;exitDx=0;exitDy=0;entryX=0.378;entryY=1.001;entryDx=0;entryDy=0;entryPerimeter=0;" edge="1" parent="Mhd92hIq7de9pidu9jlM-1" target="HkwgHHsKWqpLjxovWTy6-92">
          <mxGeometry width="50" height="50" relative="1" as="geometry">
            <mxPoint x="1380" y="180" as="sourcePoint" />
            <mxPoint x="1430" y="160" as="targetPoint" />
            <Array as="points">
              <mxPoint x="1380" y="170" />
              <mxPoint x="1410" y="170" />
              <mxPoint x="1430" y="170" />
              <mxPoint x="1490" y="170" />
            </Array>
          </mxGeometry>
        </mxCell>
        <mxCell id="HkwgHHsKWqpLjxovWTy6-94" value="" style="endArrow=classic;html=1;rounded=0;exitX=0.5;exitY=0;exitDx=0;exitDy=0;entryX=0.625;entryY=1.005;entryDx=0;entryDy=0;entryPerimeter=0;" edge="1" parent="Mhd92hIq7de9pidu9jlM-1" target="HkwgHHsKWqpLjxovWTy6-92">
          <mxGeometry width="50" height="50" relative="1" as="geometry">
            <mxPoint x="1620" y="180" as="sourcePoint" />
            <mxPoint x="1569.9300000000003" y="149.67000000000007" as="targetPoint" />
            <Array as="points">
              <mxPoint x="1620" y="170" />
              <mxPoint x="1510" y="170" />
            </Array>
          </mxGeometry>
        </mxCell>
        <mxCell id="HkwgHHsKWqpLjxovWTy6-96" value="" style="endArrow=classic;html=1;rounded=0;exitX=0.5;exitY=0;exitDx=0;exitDy=0;dashed=1;" edge="1" parent="Mhd92hIq7de9pidu9jlM-1" source="HkwgHHsKWqpLjxovWTy6-50">
          <mxGeometry width="50" height="50" relative="1" as="geometry">
            <mxPoint x="1090" y="180" as="sourcePoint" />
            <mxPoint x="1160" y="150" as="targetPoint" />
            <Array as="points">
              <mxPoint x="1100" y="170" />
              <mxPoint x="1120" y="170" />
              <mxPoint x="1140" y="170" />
              <mxPoint x="1160" y="170" />
            </Array>
          </mxGeometry>
        </mxCell>
        <mxCell id="HkwgHHsKWqpLjxovWTy6-103" value="" style="endArrow=none;dashed=1;html=1;rounded=0;exitX=0.5;exitY=0;exitDx=0;exitDy=0;" edge="1" parent="Mhd92hIq7de9pidu9jlM-1" source="HkwgHHsKWqpLjxovWTy6-28">
          <mxGeometry width="50" height="50" relative="1" as="geometry">
            <mxPoint x="270" y="90" as="sourcePoint" />
            <mxPoint x="920" y="-120" as="targetPoint" />
            <Array as="points">
              <mxPoint x="260" y="40" />
            </Array>
          </mxGeometry>
        </mxCell>
        <mxCell id="HkwgHHsKWqpLjxovWTy6-104" value="" style="endArrow=none;dashed=1;html=1;rounded=0;exitX=0.5;exitY=0;exitDx=0;exitDy=0;" edge="1" parent="Mhd92hIq7de9pidu9jlM-1" source="HkwgHHsKWqpLjxovWTy6-31">
          <mxGeometry width="50" height="50" relative="1" as="geometry">
            <mxPoint x="740" y="110" as="sourcePoint" />
            <mxPoint x="920" y="-120" as="targetPoint" />
            <Array as="points">
              <mxPoint x="740" y="40" />
            </Array>
          </mxGeometry>
        </mxCell>
        <mxCell id="HkwgHHsKWqpLjxovWTy6-105" value="" style="endArrow=none;dashed=1;html=1;rounded=0;" edge="1" parent="Mhd92hIq7de9pidu9jlM-1">
          <mxGeometry width="50" height="50" relative="1" as="geometry">
            <mxPoint x="1200" y="120" as="sourcePoint" />
            <mxPoint x="920" y="-120" as="targetPoint" />
            <Array as="points">
              <mxPoint x="1200" y="40" />
            </Array>
          </mxGeometry>
        </mxCell>
        <mxCell id="HkwgHHsKWqpLjxovWTy6-106" value="" style="endArrow=none;dashed=1;html=1;rounded=0;exitX=0.5;exitY=0;exitDx=0;exitDy=0;" edge="1" parent="Mhd92hIq7de9pidu9jlM-1" source="HkwgHHsKWqpLjxovWTy6-92">
          <mxGeometry width="50" height="50" relative="1" as="geometry">
            <mxPoint x="1390" y="90" as="sourcePoint" />
            <mxPoint x="920" y="-120" as="targetPoint" />
            <Array as="points">
              <mxPoint x="1500" y="40" />
            </Array>
          </mxGeometry>
        </mxCell>
        <mxCell id="HkwgHHsKWqpLjxovWTy6-108" value="" style="endArrow=classic;html=1;rounded=0;dashed=1;" edge="1" parent="Mhd92hIq7de9pidu9jlM-1">
          <mxGeometry width="50" height="50" relative="1" as="geometry">
            <mxPoint x="1300" y="270" as="sourcePoint" />
            <mxPoint x="1240" y="150" as="targetPoint" />
            <Array as="points">
              <mxPoint x="1300" y="270" />
              <mxPoint x="1300" y="170" />
              <mxPoint x="1240" y="170" />
            </Array>
          </mxGeometry>
        </mxCell>
        <mxCell id="HkwgHHsKWqpLjxovWTy6-110" value="" style="endArrow=classic;html=1;rounded=0;entryX=0.5;entryY=1;entryDx=0;entryDy=0;" edge="1" parent="Mhd92hIq7de9pidu9jlM-1" target="Mhd92hIq7de9pidu9jlM-3">
          <mxGeometry width="50" height="50" relative="1" as="geometry">
            <mxPoint x="920" y="-120" as="sourcePoint" />
            <mxPoint x="970" y="-170" as="targetPoint" />
          </mxGeometry>
        </mxCell>
        <mxCell id="HkwgHHsKWqpLjxovWTy6-111" value="0x1" style="text;html=1;align=center;verticalAlign=middle;whiteSpace=wrap;rounded=0;" vertex="1" parent="Mhd92hIq7de9pidu9jlM-1">
          <mxGeometry x="159" y="330" width="80" height="20" as="geometry" />
        </mxCell>
        <mxCell id="HkwgHHsKWqpLjxovWTy6-112" value="0x0" style="text;html=1;align=center;verticalAlign=middle;whiteSpace=wrap;rounded=0;" vertex="1" parent="Mhd92hIq7de9pidu9jlM-1">
          <mxGeometry x="39" y="330" width="80" height="20" as="geometry" />
        </mxCell>
        <mxCell id="HkwgHHsKWqpLjxovWTy6-113" value="0x2" style="text;html=1;align=center;verticalAlign=middle;whiteSpace=wrap;rounded=0;" vertex="1" parent="Mhd92hIq7de9pidu9jlM-1">
          <mxGeometry x="280" y="330" width="80" height="20" as="geometry" />
        </mxCell>
        <mxCell id="HkwgHHsKWqpLjxovWTy6-114" value="0x3" style="text;html=1;align=center;verticalAlign=middle;whiteSpace=wrap;rounded=0;" vertex="1" parent="Mhd92hIq7de9pidu9jlM-1">
          <mxGeometry x="399" y="330" width="80" height="20" as="geometry" />
        </mxCell>
        <mxCell id="HkwgHHsKWqpLjxovWTy6-115" value="0x4" style="text;html=1;align=center;verticalAlign=middle;whiteSpace=wrap;rounded=0;" vertex="1" parent="Mhd92hIq7de9pidu9jlM-1">
          <mxGeometry x="520" y="330" width="80" height="20" as="geometry" />
        </mxCell>
        <mxCell id="HkwgHHsKWqpLjxovWTy6-116" value="0x5" style="text;html=1;align=center;verticalAlign=middle;whiteSpace=wrap;rounded=0;" vertex="1" parent="Mhd92hIq7de9pidu9jlM-1">
          <mxGeometry x="640" y="330" width="80" height="20" as="geometry" />
        </mxCell>
        <mxCell id="HkwgHHsKWqpLjxovWTy6-117" value="nullifier" style="text;html=1;align=center;verticalAlign=middle;whiteSpace=wrap;rounded=0;" vertex="1" parent="Mhd92hIq7de9pidu9jlM-1">
          <mxGeometry x="760" y="330" width="80" height="20" as="geometry" />
        </mxCell>
        <mxCell id="HkwgHHsKWqpLjxovWTy6-118" value="address" style="text;html=1;align=center;verticalAlign=middle;whiteSpace=wrap;rounded=0;" vertex="1" parent="Mhd92hIq7de9pidu9jlM-1">
          <mxGeometry x="880" y="330" width="80" height="20" as="geometry" />
        </mxCell>
        <mxCell id="HkwgHHsKWqpLjxovWTy6-119" value="nullifier" style="text;html=1;align=center;verticalAlign=middle;whiteSpace=wrap;rounded=0;" vertex="1" parent="Mhd92hIq7de9pidu9jlM-1">
          <mxGeometry x="1000" y="330" width="80" height="20" as="geometry" />
        </mxCell>
        <mxCell id="HkwgHHsKWqpLjxovWTy6-120" value="nullifier" style="text;html=1;align=center;verticalAlign=middle;whiteSpace=wrap;rounded=0;" vertex="1" parent="Mhd92hIq7de9pidu9jlM-1">
          <mxGeometry x="1399" y="330" width="80" height="20" as="geometry" />
        </mxCell>
        <mxCell id="HkwgHHsKWqpLjxovWTy6-121" value="address" style="text;html=1;align=center;verticalAlign=middle;whiteSpace=wrap;rounded=0;" vertex="1" parent="Mhd92hIq7de9pidu9jlM-1">
          <mxGeometry x="1520" y="330" width="80" height="20" as="geometry" />
        </mxCell>
        <mxCell id="HkwgHHsKWqpLjxovWTy6-122" value="address" style="text;html=1;align=center;verticalAlign=middle;whiteSpace=wrap;rounded=0;" vertex="1" parent="Mhd92hIq7de9pidu9jlM-1">
          <mxGeometry x="1640" y="330" width="80" height="20" as="geometry" />
        </mxCell>
        <mxCell id="HkwgHHsKWqpLjxovWTy6-123" value="" style="endArrow=open;html=1;rounded=0;strokeWidth=1;endFill=0;" edge="1" parent="Mhd92hIq7de9pidu9jlM-1">
          <mxGeometry width="50" height="50" relative="1" as="geometry">
            <mxPoint x="10" y="305.82" as="sourcePoint" />
            <mxPoint x="30" y="305.82" as="targetPoint" />
          </mxGeometry>
        </mxCell>
        <mxCell id="HkwgHHsKWqpLjxovWTy6-124" value="" style="endArrow=open;html=1;rounded=0;strokeWidth=1;endFill=0;" edge="1" parent="Mhd92hIq7de9pidu9jlM-1">
          <mxGeometry width="50" height="50" relative="1" as="geometry">
            <mxPoint x="10" y="340.82" as="sourcePoint" />
            <mxPoint x="30" y="340.82" as="targetPoint" />
          </mxGeometry>
        </mxCell>
      </root>
    </mxGraphModel>
  </diagram>
</mxfile>
